<?xml version="1.0" standalone="no"?>
<!DOCTYPE svg PUBLIC "-//W3C//DTD SVG 20010904//EN"
 "http://www.w3.org/TR/2001/REC-SVG-20010904/DTD/svg10.dtd">
<svg version="1.0" xmlns="http://www.w3.org/2000/svg"
 width="1250.000000pt" height="1250.000000pt" viewBox="0 0 1250.000000 1250.000000"
 preserveAspectRatio="xMidYMid meet">
<metadata>
Created by potrace 1.14, written by Peter Selinger 2001-2017
</metadata>
<g transform="translate(0.000000,1250.000000) scale(0.100000,-0.100000)"
fill="#000000" stroke="none">
<path d="M1272 9248 l3 -2553 1220 0 1220 0 3 943 2 942 105 0 105 0 2 -942 3
-943 1220 0 1220 0 3 2553 2 2552 -1225 0 -1225 0 0 -940 0 -940 -105 0 -105
0 0 940 0 940 -1225 0 -1225 0 2 -2552z"/>
<path d="M6820 9240 l0 -2550 1235 0 1235 0 0 484 0 483 114 7 c518 31 995
250 1358 624 510 525 701 1249 517 1960 -183 710 -754 1281 -1469 1471 -261
69 -145 64 -1637 68 l-1353 4 0 -2551z"/>
<path d="M5968 5938 c11 -18 333 -593 716 -1277 l696 -1244 -710 -1268 c-390
-697 -710 -1272 -710 -1278 0 -8 780 -11 2700 -11 1485 0 2700 2 2700 4 0 2
-316 568 -702 1258 -385 689 -705 1264 -711 1278 -8 22 68 163 690 1275 385
688 705 1260 712 1273 l12 22 -2706 0 -2707 0 20 -32z"/>
<path d="M1330 3405 l0 -2555 2241 0 2240 0 -75 143 c-41 78 -210 394 -375
702 l-300 560 42 34 c77 64 262 255 323 336 282 371 425 791 425 1245 0 181
-20 346 -61 517 -176 727 -765 1324 -1490 1508 -58 15 -163 35 -235 46 -123
18 -202 19 -1432 19 l-1303 0 0 -2555z"/>
</g>
</svg>
